<svg width="153" height="20" viewBox="0 0 153 20" fill="none" xmlns="http://www.w3.org/2000/svg">
<path d="M14.0778 13.7018V8L0 16H26.1337V0L14.0778 13.7018Z" fill="#94969C" style="fill:#94969C;fill:color(display-p3 0.5804 0.5882 0.6118);fill-opacity:1;"/>
<path d="M45.6169 4.6592H48.5439V14.9333H46.7877V8.8256C46.7877 8.3328 46.8023 7.69067 46.8462 6.86933L46.8755 6.16747H46.8316L44.168 14.9333H42.0753L39.4263 6.16747H39.3824L39.4117 6.86933C39.4556 7.69067 39.4703 8.3328 39.4703 8.8256V14.9333H37.7141V4.6592H40.641L43.1143 13.1115L45.6169 4.6592Z" fill="#94969C" style="fill:#94969C;fill:color(display-p3 0.5804 0.5882 0.6118);fill-opacity:1;"/>
<path d="M50.0046 12.9024C50.0046 11.5883 50.8827 10.9312 52.595 10.5728L53.5902 10.3637C54.2926 10.2293 54.6 10.0352 54.6 9.4976C54.6 9.0048 54.1609 8.6464 53.3999 8.6464C52.5072 8.6464 51.9072 9.21387 51.8633 10.0949L50.151 9.9456C50.2534 8.40747 51.4681 7.37707 53.3414 7.37707C55.2585 7.37707 56.3269 8.21333 56.3269 9.9456V14.9333H54.6731V14.2016H54.6585C54.3073 14.7243 53.5024 15.1125 52.5511 15.1125C51.1754 15.1125 50.0046 14.2763 50.0046 12.9024ZM54.6439 12.3349V11.3792C53.7219 11.5136 53.0633 11.6779 52.6535 11.8571C52.0828 12.096 51.7754 12.4096 51.7754 12.8725C51.7754 13.4848 52.2877 13.8731 53.034 13.8731C53.9707 13.8731 54.6439 13.2757 54.6439 12.3349Z" fill="#94969C" style="fill:#94969C;fill:color(display-p3 0.5804 0.5882 0.6118);fill-opacity:1;"/>
<path d="M61.6056 14.9333H59.9519L57.1712 7.55627H59.0152L60.7714 12.768H60.7861L62.5422 7.55627H64.3862L61.6056 14.9333Z" fill="#94969C" style="fill:#94969C;fill:color(display-p3 0.5804 0.5882 0.6118);fill-opacity:1;"/>
<path d="M71.6894 11.648H66.4208C66.4794 12.9173 67.1965 13.7387 68.2941 13.7387C69.1722 13.7387 69.7868 13.216 69.9625 12.4395L71.6455 12.6485C71.2796 14.0373 70.1527 15.1125 68.2795 15.1125C66.172 15.1125 64.7817 13.6192 64.7817 11.2597C64.7817 8.97493 66.2745 7.37707 68.2941 7.37707C70.2405 7.37707 71.6894 8.98987 71.6894 11.1253V11.648ZM69.9478 10.4235C69.8893 9.46773 69.26 8.72107 68.2795 8.72107C67.2697 8.72107 66.5526 9.46773 66.4501 10.4235H69.9478Z" fill="#94969C" style="fill:#94969C;fill:color(display-p3 0.5804 0.5882 0.6118);fill-opacity:1;"/>
<path d="M77.1791 7.392V9.07947C77.0766 9.06453 76.9742 9.06453 76.8717 9.06453C75.5692 9.06453 74.8229 9.75147 74.8229 11.0208V14.9333H73.0667V7.55627H74.7936V8.97493C75.0424 8.03413 75.7741 7.37707 76.8278 7.37707C76.9742 7.37707 77.0913 7.37707 77.1791 7.392Z" fill="#94969C" style="fill:#94969C;fill:color(display-p3 0.5804 0.5882 0.6118);fill-opacity:1;"/>
<path d="M79.9965 6.60053H78.2403V4.6592H79.9965V6.60053ZM79.9965 14.9333H78.2403V7.55627H79.9965V14.9333Z" fill="#94969C" style="fill:#94969C;fill:color(display-p3 0.5804 0.5882 0.6118);fill-opacity:1;"/>
<path d="M81.3603 11.2597C81.3603 8.9152 82.8677 7.37707 84.9458 7.37707C86.7606 7.37707 87.9167 8.43733 88.3265 9.9904L86.541 10.4235C86.4093 9.4528 85.8093 8.79573 84.9312 8.79573C83.8336 8.79573 83.1457 9.73653 83.1457 11.2448C83.1457 12.7979 83.8482 13.6939 84.9605 13.6939C85.8386 13.6939 86.4093 13.1264 86.5703 12.0661L88.3558 12.4992C87.8875 14.0523 86.7313 15.1125 84.9605 15.1125C82.8384 15.1125 81.3603 13.5744 81.3603 11.2597Z" fill="#94969C" style="fill:#94969C;fill:color(display-p3 0.5804 0.5882 0.6118);fill-opacity:1;"/>
<path d="M93.2764 10.9461L96.7449 14.9333H94.535L91.33 11.1403V14.9333H89.5738V4.6592H91.33V10.9909L94.213 7.55627H96.3351L93.2764 10.9461Z" fill="#94969C" style="fill:#94969C;fill:color(display-p3 0.5804 0.5882 0.6118);fill-opacity:1;"/>
<path d="M104.324 4.6592C106.359 4.6592 107.69 5.74933 107.69 7.73547C107.69 9.9008 106.403 10.976 104.222 10.976H102.027V14.9333H100.227V4.6592H104.324ZM103.973 9.42293C105.246 9.42293 105.934 8.96 105.934 7.78027C105.934 6.5856 105.173 6.21227 103.9 6.21227H102.027V9.42293H103.973Z" fill="#94969C" style="fill:#94969C;fill:color(display-p3 0.5804 0.5882 0.6118);fill-opacity:1;"/>
<path d="M112.937 7.392V9.07947C112.835 9.06453 112.732 9.06453 112.63 9.06453C111.327 9.06453 110.581 9.75147 110.581 11.0208V14.9333H108.825V7.55627H110.552V8.97493C110.801 8.03413 111.532 7.37707 112.586 7.37707C112.732 7.37707 112.85 7.37707 112.937 7.392Z" fill="#94969C" style="fill:#94969C;fill:color(display-p3 0.5804 0.5882 0.6118);fill-opacity:1;"/>
<path d="M113.403 11.2448C113.403 8.96 114.881 7.37707 116.974 7.37707C119.066 7.37707 120.544 8.96 120.544 11.2448C120.544 13.5296 119.066 15.1125 116.974 15.1125C114.881 15.1125 113.403 13.5296 113.403 11.2448ZM118.759 11.2448C118.759 9.79627 118.144 8.79573 116.974 8.79573C115.803 8.79573 115.188 9.79627 115.188 11.2448C115.188 12.6933 115.803 13.6939 116.974 13.6939C118.144 13.6939 118.759 12.6933 118.759 11.2448Z" fill="#94969C" style="fill:#94969C;fill:color(display-p3 0.5804 0.5882 0.6118);fill-opacity:1;"/>
<path d="M122.49 14.0075C122.388 13.7536 122.344 13.3952 122.344 12.9024V8.94507H121.056V7.55627H122.344V5.22667H124.1V7.55627H125.564V8.94507H124.1V12.7531C124.1 13.3355 124.422 13.5744 125.022 13.5744C125.213 13.5744 125.417 13.5595 125.637 13.5296V14.9035C125.271 14.9781 124.891 15.0229 124.481 15.0229C123.412 15.0229 122.754 14.6795 122.49 14.0075Z" fill="#94969C" style="fill:#94969C;fill:color(display-p3 0.5804 0.5882 0.6118);fill-opacity:1;"/>
<path d="M126.351 11.2448C126.351 8.96 127.829 7.37707 129.922 7.37707C132.015 7.37707 133.493 8.96 133.493 11.2448C133.493 13.5296 132.015 15.1125 129.922 15.1125C127.829 15.1125 126.351 13.5296 126.351 11.2448ZM131.707 11.2448C131.707 9.79627 131.093 8.79573 129.922 8.79573C128.751 8.79573 128.137 9.79627 128.137 11.2448C128.137 12.6933 128.751 13.6939 129.922 13.6939C131.093 13.6939 131.707 12.6933 131.707 11.2448Z" fill="#94969C" style="fill:#94969C;fill:color(display-p3 0.5804 0.5882 0.6118);fill-opacity:1;"/>
<path d="M134.426 11.2597C134.426 8.9152 135.933 7.37707 138.012 7.37707C139.826 7.37707 140.982 8.43733 141.392 9.9904L139.607 10.4235C139.475 9.4528 138.875 8.79573 137.997 8.79573C136.899 8.79573 136.211 9.73653 136.211 11.2448C136.211 12.7979 136.914 13.6939 138.026 13.6939C138.904 13.6939 139.475 13.1264 139.636 12.0661L141.421 12.4992C140.953 14.0523 139.797 15.1125 138.026 15.1125C135.904 15.1125 134.426 13.5744 134.426 11.2597Z" fill="#94969C" style="fill:#94969C;fill:color(display-p3 0.5804 0.5882 0.6118);fill-opacity:1;"/>
<path d="M142.215 11.2448C142.215 8.96 143.693 7.37707 145.786 7.37707C147.879 7.37707 149.357 8.96 149.357 11.2448C149.357 13.5296 147.879 15.1125 145.786 15.1125C143.693 15.1125 142.215 13.5296 142.215 11.2448ZM147.571 11.2448C147.571 9.79627 146.957 8.79573 145.786 8.79573C144.615 8.79573 144.001 9.79627 144.001 11.2448C144.001 12.6933 144.615 13.6939 145.786 13.6939C146.957 13.6939 147.571 12.6933 147.571 11.2448Z" fill="#94969C" style="fill:#94969C;fill:color(display-p3 0.5804 0.5882 0.6118);fill-opacity:1;"/>
<path d="M152.471 14.9333H150.714V4.6592H152.471V14.9333Z" fill="#94969C" style="fill:#94969C;fill:color(display-p3 0.5804 0.5882 0.6118);fill-opacity:1;"/>
</svg>
